{"title":"Mr.Bean.Animated.Series.S02E08.Rat.Trap.WEBRip.h264-orangebirds","uid":11896613,"size":49502956,"categoryP":"video","categoryS":"tv_shows","magnet":"?xt=urn:btih:daa9d105b64a5760f09c346fb6abf05407fe0541&amp;dn=Mr.Bean.Animated.Series.S02E08.Rat.Trap.WEBRip.h264-orangebirds&amp;tr=udp%3A%2F%2Ftracker.openbittorrent.com%3A80&amp;tr=udp%3A%2F%2Fopen.demonii.com%3A1337&amp;tr=udp%3A%2F%2Ftracker.coppersurfer.tk%3A6969&amp;tr=udp%3A%2F%2Fexodus.desync.com%3A6969","seeders":1,"leechers":0,"uploader":"orangebirds","files":1,"time":1431176781,"description":"Mr.Bean.Animated.Series.S02E08.Rat.Trap.WEBRip.h264-orangebirds\n\nSource : ITVPlayer\n\nVideo untouched from the stream\nAudio in AAC 2.0\n\nPlease help me seed!\n\nGeneral\nComplete name                            : Mr.Bean.Animated.Series.S02E08.Rat.Trap.WEBRip.h264-orangebirds.mp4\nFormat                                   : MPEG-4\nFormat profile                           : Base Media\nCodec ID                                 : isom\nFile size                                : 47.2 MiB\nDuration                                 : 10mn 59s\nOverall bit rate mode                    : Variable\nOverall bit rate                         : 600 Kbps\nEncoded date                             : UTC 2015-05-09 09:36:13\nTagged date                              : UTC 2015-05-09 09:36:13\n\nVideo\nID                                       : 1\nFormat                                   : AVC\nFormat/Info                              : Advanced Video Codec\nFormat profile                           : &lt;a class=&quot;__cf_email__&quot; href=&quot;/cdn-cgi/l/email-protection&quot; data-cfemail=&quot;5f123e36311f136c716f&quot;&gt;[email&amp;#160;protected]&lt;/a&gt;&lt;script cf-hash='f9e31' type=&quot;text/javascript&quot;&gt;\n/* &lt;![CDATA[ */!function(){try{var t=&quot;currentScript&quot;in document?document.currentScript:function(){for(var t=document.getElementsByTagName(&quot;script&quot;),e=t.length;e--;)if(t[e].getAttribute(&quot;cf-hash&quot;))return t[e]}();if(t&amp;&amp;t.previousSibling){var e,r,n,i,c=t.previousSibling,a=c.getAttribute(&quot;data-cfemail&quot;);if(a){for(e=&quot;&quot;,r=parseInt(a.substr(0,2),16),n=2;a.length-n;n+=2)i=parseInt(a.substr(n,2),16)^r,e+=String.fromCharCode(i);e=document.createTextNode(e),c.parentNode.replaceChild(e,c)}}}catch(u){}}();/* ]]&gt; */&lt;/script&gt;\nFormat settings, CABAC                   : Yes\nFormat settings, ReFrames                : 6 frames\nCodec ID                                 : avc1\nCodec ID/Info                            : Advanced Video Coding\nDuration                                 : 10mn 59s\nBit rate mode                            : Constant\nBit rate                                 : 501 Kbps\nNominal bit rate                         : 704 Kbps\nMaximum bit rate                         : 1 179 Kbps\nWidth                                    : 640 pixels\nHeight                                   : 360 pixels\nDisplay aspect ratio                     : 16:9\nFrame rate mode                          : Constant\nFrame rate                               : 25.000 fps\nStandard                                 : PAL\nColor space                              : YUV\nChroma subsampling                       : 4:2:0\nBit depth                                : 8 bits\nScan type                                : Progressive\nBits/(Pixel*Frame)                       : 0.087\nStream size                              : 39.4 MiB (83%)\nTitle                                    : &lt;a class=&quot;__cf_email__&quot; href=&quot;/cdn-cgi/l/email-protection&quot; data-cfemail=&quot;013337354146514042312f342f302c4544572c73647735383338&quot;&gt;[email&amp;#160;protected]&lt;/a&gt;&lt;script cf-hash='f9e31' type=&quot;text/javascript&quot;&gt;\n/* &lt;![CDATA[ */!function(){try{var t=&quot;currentScript&quot;in document?document.currentScript:function(){for(var t=document.getElementsByTagName(&quot;script&quot;),e=t.length;e--;)if(t[e].getAttribute(&quot;cf-hash&quot;))return t[e]}();if(t&amp;&amp;t.previousSibling){var e,r,n,i,c=t.previousSibling,a=c.getAttribute(&quot;data-cfemail&quot;);if(a){for(e=&quot;&quot;,r=parseInt(a.substr(0,2),16),n=2;a.length-n;n+=2)i=parseInt(a.substr(n,2),16)^r,e+=String.fromCharCode(i);e=document.createTextNode(e),c.parentNode.replaceChild(e,c)}}}catch(u){}}();/* ]]&gt; */&lt;/script&gt;\nEncoded date                             : UTC 2015-05-09 09:36:13\nTagged date                              : UTC 2015-05-09 09:36:15\n\nAudio\nID                                       : 2\nFormat                                   : AAC\nFormat/Info                              : Advanced Audio Codec\nFormat profile                           : LC\nCodec ID                                 : 40\nDuration                                 : 10mn 59s\nBit rate mode                            : Variable\nBit rate                                 : 96.0 Kbps\nChannel(s)                               : 2 channels\nChannel positions                        : Front: L R\nSampling rate                            : 48.0 KHz\nCompression mode                         : Lossy\nStream size                              : 7.56 MiB (16%)\nTitle                                    : &lt;a class=&quot;__cf_email__&quot; href=&quot;/cdn-cgi/l/email-protection&quot; data-cfemail=&quot;c0a1a1a38087908183f0eef5eef1ed848596edb2a5b6f4f9f2f9&quot;&gt;[email&amp;#160;protected]&lt;/a&gt;&lt;script cf-hash='f9e31' type=&quot;text/javascript&quot;&gt;\n/* &lt;![CDATA[ */!function(){try{var t=&quot;currentScript&quot;in document?document.currentScript:function(){for(var t=document.getElementsByTagName(&quot;script&quot;),e=t.length;e--;)if(t[e].getAttribute(&quot;cf-hash&quot;))return t[e]}();if(t&amp;&amp;t.previousSibling){var e,r,n,i,c=t.previousSibling,a=c.getAttribute(&quot;data-cfemail&quot;);if(a){for(e=&quot;&quot;,r=parseInt(a.substr(0,2),16),n=2;a.length-n;n+=2)i=parseInt(a.substr(n,2),16)^r,e+=String.fromCharCode(i);e=document.createTextNode(e),c.parentNode.replaceChild(e,c)}}}catch(u){}}();/* ]]&gt; */&lt;/script&gt;\nEncoded date                             : UTC 2015-05-09 09:36:15\nTagged date                              : UTC 2015-05-09 09:36:15","torrent":{"xt":"urn:btih:daa9d105b64a5760f09c346fb6abf05407fe0541","amp;dn":"Mr.Bean.Animated.Series.S02E08.Rat.Trap.WEBRip.h264-orangebirds","amp;tr":["udp%3A%2F%2Ftracker.openbittorrent.com%3A80","udp%3A%2F%2Fopen.demonii.com%3A1337","udp%3A%2F%2Ftracker.coppersurfer.tk%3A6969","udp%3A%2F%2Fexodus.desync.com%3A6969"],"infoHash":"daa9d105b64a5760f09c346fb6abf05407fe0541","infoHashBuffer":{"type":"Buffer","data":[218,169,209,5,182,74,87,96,240,156,52,111,182,171,240,84,7,254,5,65]},"announce":[],"urlList":[]}}